<?xml version="1.0" encoding="UTF-8" standalone="no"?>
<!-- Generator: IcoMoon.io -->

<svg
   xmlns:dc="http://purl.org/dc/elements/1.1/"
   xmlns:cc="http://creativecommons.org/ns#"
   xmlns:rdf="http://www.w3.org/1999/02/22-rdf-syntax-ns#"
   xmlns:svg="http://www.w3.org/2000/svg"
   xmlns="http://www.w3.org/2000/svg"
   xmlns:sodipodi="http://sodipodi.sourceforge.net/DTD/sodipodi-0.dtd"
   xmlns:inkscape="http://www.inkscape.org/namespaces/inkscape"
   version="1.1"
   id="Layer_1"
   x="0px"
   y="0px"
   width="32"
   height="32"
   viewBox="0 0 32 32"
   enable-background="new 0 0 16 16"
   xml:space="preserve"
   fill="#000000"
   inkscape:version="0.91 r13725"
   sodipodi:docname="icon_speaker.svg"
   inkscape:export-filename="D:\Google Drive\Illustration\Perrinn F1\Iconos App\icon_speaker.png"
   inkscape:export-xdpi="720"
   inkscape:export-ydpi="720"><metadata
     id="metadata11"><rdf:RDF><cc:Work
         rdf:about=""><dc:format>image/svg+xml</dc:format><dc:type
           rdf:resource="http://purl.org/dc/dcmitype/StillImage" /><dc:title /></cc:Work></rdf:RDF></metadata><defs
     id="defs9" /><sodipodi:namedview
     pagecolor="#969696"
     bordercolor="#666666"
     borderopacity="1"
     objecttolerance="10"
     gridtolerance="10"
     guidetolerance="10"
     inkscape:pageopacity="0"
     inkscape:pageshadow="2"
     inkscape:window-width="1920"
     inkscape:window-height="1057"
     id="namedview7"
     showgrid="false"
     inkscape:zoom="20.85965"
     inkscape:cx="9.2692727"
     inkscape:cy="16.812449"
     inkscape:window-x="-8"
     inkscape:window-y="-8"
     inkscape:window-maximized="1"
     inkscape:current-layer="Layer_1"
     inkscape:showpageshadow="false"
     showguides="false"><inkscape:grid
       type="xygrid"
       id="grid4153" /></sodipodi:namedview><rect
     style="fill:none;fill-opacity:1;stroke:#ffffff;stroke-width:0.5;stroke-linejoin:miter;stroke-miterlimit:4;stroke-dasharray:none;stroke-opacity:1"
     id="rect4151"
     width="31.5"
     height="31.5"
     x="0.25"
     y="0.25"
     rx="2" /><g
     style="fill:#ffffff;fill-opacity:1"
     id="g4169"
     transform="matrix(0.72328384,0,0,0.72328384,4.7891004,4.4281818)"><g
       id="g4159"
       style="fill:#ffffff;fill-opacity:1"><path
         id="path4161"
         d="m 2,24.254 4.59,0 c 0.362,0.36 8.702,7.38 8.702,7.38 0.502,0.304 0.928,0.392 1.292,0.358 0.74,-0.07 1.26,-0.69 1.418,-1.344 C 18.01,30.584 18.01,1.416 18,1.352 17.844,0.696 17.322,0.076 16.584,0.006 16.22,-0.028 15.794,0.06 15.292,0.364 15.292,0.364 6.952,7.64 6.59,8 L 2,8 C 0.896,8 0,8.896 0,10 L 0,10.254 0,22 0,22.254 c 0,1.106 0.896,2 2,2 z m 19.082,-4.76 c -0.494,0.25 -0.692,0.85 -0.444,1.344 0.176,0.348 0.528,0.55 0.892,0.55 0.152,0 0.304,-0.034 0.45,-0.106 2.022,-1.02 3.278,-3.042 3.278,-5.282 0,-2.24 -1.256,-4.262 -3.278,-5.282 -0.494,-0.25 -1.092,-0.05 -1.342,0.444 -0.248,0.494 -0.05,1.094 0.444,1.344 1.342,0.676 2.176,2.014 2.176,3.494 0,1.48 -0.834,2.818 -2.176,3.494 z m -1.376,7.984 c 0.094,0.478 0.512,0.808 0.98,0.808 0.064,0 0.128,-0.006 0.194,-0.018 C 26.744,27.124 31,21.964 31,16 31,10.036 26.744,4.876 20.878,3.732 20.344,3.624 19.81,3.98 19.706,4.522 19.6,5.064 19.954,5.59 20.496,5.696 25.424,6.656 29,10.99 29,16 c 0,5.01 -3.576,9.344 -8.504,10.304 -0.542,0.106 -0.896,0.632 -0.79,1.174 z"
         inkscape:connector-curvature="0"
         style="fill:#ffffff;fill-opacity:1" /></g></g></svg>