<?xml version="1.0" encoding="UTF-8" standalone="no"?>
<!-- Generator: IcoMoon.io -->

<svg
   xmlns:dc="http://purl.org/dc/elements/1.1/"
   xmlns:cc="http://creativecommons.org/ns#"
   xmlns:rdf="http://www.w3.org/1999/02/22-rdf-syntax-ns#"
   xmlns:svg="http://www.w3.org/2000/svg"
   xmlns="http://www.w3.org/2000/svg"
   xmlns:sodipodi="http://sodipodi.sourceforge.net/DTD/sodipodi-0.dtd"
   xmlns:inkscape="http://www.inkscape.org/namespaces/inkscape"
   version="1.1"
   id="Layer_1"
   x="0px"
   y="0px"
   width="32"
   height="32"
   viewBox="0 0 32 32"
   enable-background="new 0 0 16 16"
   xml:space="preserve"
   fill="#000000"
   inkscape:version="0.91 r13725"
   sodipodi:docname="icon_images_01.svg"
   inkscape:export-filename="D:\Google Drive\Illustration\Perrinn F1\Iconos App\icon_speaker.png"
   inkscape:export-xdpi="720"
   inkscape:export-ydpi="720"><metadata
     id="metadata11"><rdf:RDF><cc:Work
         rdf:about=""><dc:format>image/svg+xml</dc:format><dc:type
           rdf:resource="http://purl.org/dc/dcmitype/StillImage" /><dc:title></dc:title></cc:Work></rdf:RDF></metadata><defs
     id="defs9" /><sodipodi:namedview
     pagecolor="#969696"
     bordercolor="#666666"
     borderopacity="1"
     objecttolerance="10"
     gridtolerance="10"
     guidetolerance="10"
     inkscape:pageopacity="0"
     inkscape:pageshadow="2"
     inkscape:window-width="1920"
     inkscape:window-height="1057"
     id="namedview7"
     showgrid="false"
     inkscape:zoom="16"
     inkscape:cx="4.3652696"
     inkscape:cy="14.865023"
     inkscape:window-x="-8"
     inkscape:window-y="-8"
     inkscape:window-maximized="1"
     inkscape:current-layer="Layer_1"
     inkscape:showpageshadow="false"
     showguides="false"><inkscape:grid
       type="xygrid"
       id="grid4153" /></sodipodi:namedview><rect
     style="fill:none;fill-opacity:1;stroke:#ffffff;stroke-width:0.5;stroke-linejoin:miter;stroke-miterlimit:4;stroke-dasharray:none;stroke-opacity:1"
     id="rect4151"
     width="31.5"
     height="31.5"
     x="0.25"
     y="0.25"
     rx="2" /><g
     style="fill:#ffffff;fill-opacity:1"
     id="g4221"
     transform="matrix(0.703125,0,0,0.703125,4.75,3.34375)"><g
       id="g4211"
       style="fill:#ffffff;fill-opacity:1"><path
         id="path4213"
         d="m 30,10 -4,0 C 26,10 24.844,10 24,8 23.57,6.982 23.104,6 22,6 l -8,0 c -1.104,0 -1.584,0.976 -2,2 -0.812,2 -2,2 -2,2 L 8,10 C 8,8.896 7.104,8 6,8 L 4,8 C 2.896,8 2,8.896 2,10 0.896,10 0,10.896 0,12 l 0,4 11.11,0 c 1.386,-2.382 3.936,-4 6.89,-4 2.954,0 5.504,1.618 6.89,4 l 7.11,0 0,-4 c 0,-1.104 -0.896,-2 -2,-2 z M 7,14 3,14 C 2.448,14 2,13.552 2,13 2,12.448 2.448,12 3,12 l 1,0 2,0 1,0 c 0.552,0 1,0.448 1,1 0,0.552 -0.448,1 -1,1 z m 5,6 a 6,6 0 1 0 12,0 6,6 0 1 0 -12,0 z m 14,0 c 0,4.418 -3.582,8 -8,8 -4.418,0 -8,-3.582 -8,-8 0,-0.694 0.116,-1.358 0.282,-2 L 0,18 0,28 c 0,1.104 0.896,2 2,2 l 28,0 c 1.104,0 2,-0.896 2,-2 l 0,-10 -6.282,0 C 25.884,18.642 26,19.306 26,20 Z"
         inkscape:connector-curvature="0"
         style="fill:#ffffff;fill-opacity:1" /></g></g></svg>