<?xml version="1.0" encoding="utf-8"?>
<!-- Generator: Adobe Illustrator 21.0.0, SVG Export Plug-In . SVG Version: 6.00 Build 0)  -->
<svg version="1.2" baseProfile="tiny" id="Capa_1" xmlns="http://www.w3.org/2000/svg" xmlns:xlink="http://www.w3.org/1999/xlink"
	 x="0px" y="0px" viewBox="0 0 32 32" xml:space="preserve">
<g>
	<path fill="#FFFFFF" d="M0,16c0-4.4,0-8.8,0-13.3c0-0.6,0.1-1.1,0.5-1.6c0.5-0.7,1.2-1,2-1.1c0.3,0,0.6,0,0.9,0C11.9,0,20.5,0,29,0
		c0.5,0,0.9,0,1.4,0.2c0.9,0.4,1.4,1.1,1.6,2c0,0.2,0,0.4,0,0.5c0,8.8,0,17.7,0,26.5c0,0.7-0.2,1.4-0.7,1.9
		c-0.4,0.5-0.9,0.7-1.6,0.8c-0.2,0-0.4,0-0.6,0c-8.8,0-17.5,0-26.3,0c-0.5,0-1-0.1-1.4-0.3c-0.4-0.2-0.7-0.4-0.9-0.8
		C0.2,30.4,0,29.8,0,29.2C0,24.8,0,20.4,0,16z M30.4,31c-0.1-0.2-5.9-6-6.1-6.1c-0.1,0-0.1,0.1-0.2,0.2c-0.3,0.2-0.6,0.5-0.9,0.7
		c-1,0.7-2.1,1.3-3.3,1.7c-1.2,0.4-2.4,0.6-3.7,0.6c-0.6,0-1.3,0-1.9-0.1c-0.5-0.1-1-0.2-1.5-0.3c-0.9-0.2-1.7-0.6-2.5-1
		c-0.5-0.3-0.9-0.6-1.4-0.9c-0.7-0.5-1.2-1-1.8-1.6c-0.6-0.6-1.1-1.3-1.5-2.1c-0.4-0.7-0.8-1.5-1-2.3c-0.3-1-0.5-2.1-0.6-3.2
		c0-0.6,0-1.3,0.1-1.9c0.1-1,0.3-1.9,0.7-2.8c0.4-1,0.9-2,1.5-2.9c0.3-0.4,0.6-0.8,0.9-1.1c0,0,0.1-0.1,0.1-0.1
		c-0.3-0.3-6-6-6.1-6.1c0,0.1-0.1,0.1-0.1,0.2c-0.2,0.3-0.2,0.6-0.2,1c0,8.8,0,17.6,0,26.4c0,0.1,0,0.2,0,0.2c0,0.9,0.6,1.6,1.4,1.8
		c0.2,0.1,0.5,0.1,0.7,0.1c8.8,0,17.6,0,26.4,0c0.2,0,0.4,0,0.5,0C30,31.2,30.2,31.1,30.4,31z M31,30.4c0-0.1,0.1-0.2,0.2-0.3
		c0.1-0.3,0.1-0.6,0.1-0.9c0-5.7,0-11.5,0-17.2c0-3.1,0-6.3,0-9.4c0-0.8-0.6-1.7-1.5-1.9c-0.2,0-0.4,0-0.6,0c-8.7,0-17.5,0-26.2,0
		c-0.1,0-0.3,0-0.4,0C2.2,0.7,2,0.8,1.7,0.9C1.7,1,1.7,1,1.6,1c0.1,0.2,5.9,6,6.1,6.1C7.9,7.1,8,6.9,8.1,6.8
		c0.7-0.6,1.4-1.1,2.1-1.5c0.8-0.5,1.7-0.8,2.6-1.1C13.6,4.1,14.3,4,15,3.9c0.6,0,1.1-0.1,1.7,0c0.5,0,0.9,0.1,1.4,0.2
		c0.5,0.1,1,0.2,1.5,0.4c1,0.3,1.9,0.7,2.7,1.3c0.8,0.5,1.5,1.1,2.2,1.7c0.6,0.6,1.2,1.3,1.7,2.1c0.2,0.4,0.5,0.8,0.7,1.3
		c0.2,0.5,0.4,1,0.6,1.6c0.3,1,0.5,2,0.5,3c0,0.6,0,1.3-0.1,1.9c-0.1,0.7-0.2,1.3-0.4,2c-0.1,0.4-0.3,0.9-0.5,1.3
		c-0.3,0.7-0.7,1.4-1.1,2.1c-0.3,0.5-0.7,0.9-1.1,1.3c0,0.1-0.1,0.1-0.1,0.1C26.9,26.3,28.9,28.3,31,30.4z M16,4.6
		C9.8,4.6,4.7,9.6,4.7,16c0,3.1,1.1,5.8,3.3,8.1c2.2,2.2,4.9,3.3,8,3.3c3.1,0,5.8-1.1,8-3.3c2.2-2.2,3.3-4.9,3.3-8
		C27.4,9.7,22.3,4.6,16,4.6z"/>
	<path fill="#FFFFFF" d="M16.3,26.1c-5.8,0-10.4-4.4-10.4-10.1c0-5.6,4.5-10.1,10.1-10.1c2.8,0,5.2,1,7.2,3c1.9,2,2.9,4.4,2.9,7.1
		c0,2.8-1,5.2-3,7.2C21.2,25.1,18.8,26.1,16.3,26.1z M20.7,13c0-0.2-0.1-0.5-0.2-0.7c-0.2-0.7-0.6-1.2-1.2-1.6
		c-0.4-0.3-0.9-0.5-1.4-0.6C17.7,10.1,17.4,10,17,10c-0.2,0-0.2,0-0.2-0.2c0-0.1,0-0.1,0-0.2c0-0.5,0-1,0-1.5c0-0.1,0-0.3,0-0.4
		c0-0.1,0-0.2-0.1-0.2c-0.5,0-1,0-1.5,0c-0.1,0-0.2,0-0.1,0.1c0,0.1,0,0.2,0,0.3c0,0.5,0,1.1,0,1.6c0,0.2,0,0.3-0.2,0.3
		c-0.2,0-0.4,0-0.6,0.1c-0.6,0.1-1.3,0.3-1.8,0.6c-0.9,0.5-1.4,1.2-1.6,2.2c-0.1,0.4-0.1,0.7,0,1.1c0.1,0.9,0.5,1.7,1.4,2.2
		c0.4,0.3,0.9,0.4,1.3,0.6c0.5,0.1,0.9,0.3,1.4,0.4c0.6,0.2,1.3,0.3,1.9,0.5c0.4,0.1,0.8,0.3,1.2,0.5c0.8,0.6,0.7,1.8-0.1,2.3
		c-0.2,0.1-0.4,0.2-0.7,0.3c-0.9,0.2-1.9,0.2-2.8,0c-0.8-0.2-1.4-0.7-1.7-1.5c-0.1-0.2-0.1-0.2-0.3-0.2c-0.6,0.1-1.2,0.2-1.8,0.3
		c-0.1,0-0.3,0-0.4,0.1c0,0.1,0,0.2,0.1,0.2c0.1,0.2,0.1,0.4,0.2,0.6c0.3,0.8,0.9,1.4,1.6,1.8c0.6,0.3,1.2,0.5,1.9,0.6
		c0.3,0,0.6,0.1,0.8,0.1c0.2,0,0.2,0,0.2,0.2c0,0.1,0,0.1,0,0.2c0,0.4,0,0.8,0,1.2c0,0.2,0,0.2,0.2,0.2c0.4,0,0.9,0,1.3,0
		c0.2,0,0.2,0,0.2-0.3c0-0.4,0-0.8,0-1.2c0-0.1,0-0.1,0-0.2c0-0.1,0.1-0.1,0.1-0.1c0.1,0,0.2,0,0.3,0c0.7-0.1,1.3-0.3,2-0.6
		c0.8-0.5,1.4-1.1,1.6-2c0.1-0.6,0.1-1.3,0-1.9c-0.2-0.8-0.6-1.4-1.3-1.8c-0.4-0.2-0.7-0.4-1.1-0.5c-0.8-0.2-1.6-0.4-2.4-0.6
		c-0.5-0.1-1-0.2-1.4-0.4c-0.3-0.1-0.6-0.2-0.9-0.5c-0.6-0.5-0.6-1.6,0-2c0.3-0.2,0.6-0.3,0.9-0.4c0.5-0.1,1-0.1,1.5-0.1
		c0.3,0,0.7,0.1,1,0.2c0.5,0.2,0.9,0.6,1.1,1.2c0,0.1,0.1,0.1,0.1,0.2C19.1,13.2,19.9,13.1,20.7,13z"/>
</g>
</svg>
