<?xml version="1.0" encoding="UTF-8" standalone="no"?>
<!-- Generator: IcoMoon.io -->

<svg
   xmlns:dc="http://purl.org/dc/elements/1.1/"
   xmlns:cc="http://creativecommons.org/ns#"
   xmlns:rdf="http://www.w3.org/1999/02/22-rdf-syntax-ns#"
   xmlns:svg="http://www.w3.org/2000/svg"
   xmlns="http://www.w3.org/2000/svg"
   xmlns:sodipodi="http://sodipodi.sourceforge.net/DTD/sodipodi-0.dtd"
   xmlns:inkscape="http://www.inkscape.org/namespaces/inkscape"
   version="1.1"
   id="Layer_1"
   x="0px"
   y="0px"
   width="32"
   height="32"
   viewBox="0 0 32 32"
   enable-background="new 0 0 16 16"
   xml:space="preserve"
   fill="#000000"
   inkscape:version="0.91 r13725"
   sodipodi:docname="icon_documents.svg"
   inkscape:export-filename="D:\Google Drive\Illustration\Perrinn F1\Iconos App\icon_speaker.png"
   inkscape:export-xdpi="720"
   inkscape:export-ydpi="720"><metadata
     id="metadata11"><rdf:RDF><cc:Work
         rdf:about=""><dc:format>image/svg+xml</dc:format><dc:type
           rdf:resource="http://purl.org/dc/dcmitype/StillImage" /><dc:title></dc:title></cc:Work></rdf:RDF></metadata><defs
     id="defs9" /><sodipodi:namedview
     pagecolor="#969696"
     bordercolor="#666666"
     borderopacity="1"
     objecttolerance="10"
     gridtolerance="10"
     guidetolerance="10"
     inkscape:pageopacity="0"
     inkscape:pageshadow="2"
     inkscape:window-width="1920"
     inkscape:window-height="1057"
     id="namedview7"
     showgrid="false"
     inkscape:zoom="16"
     inkscape:cx="5.7316216"
     inkscape:cy="21.672527"
     inkscape:window-x="-8"
     inkscape:window-y="-8"
     inkscape:window-maximized="1"
     inkscape:current-layer="Layer_1"
     inkscape:showpageshadow="false"
     showguides="false"><inkscape:grid
       type="xygrid"
       id="grid4153" /></sodipodi:namedview><rect
     style="fill:none;fill-opacity:1;stroke:#ffffff;stroke-width:0.5;stroke-linejoin:miter;stroke-miterlimit:4;stroke-dasharray:none;stroke-opacity:1"
     id="rect4151"
     width="31.5"
     height="31.5"
     x="0.25"
     y="0.25"
     rx="2" /><g
     style="fill:#ffffff;fill-opacity:1"
     id="g4185"
     transform="matrix(0.67857143,0,0,0.67857143,5.1428571,5.1428571)"><g
       id="g4175"
       style="fill:#ffffff;fill-opacity:1"><path
         id="path4177"
         d="m 4,28 2,0 0,2 c 0,1.104 0.896,2 2,2 l 20,0 c 1.104,0 2,-0.896 2,-2 L 30,6 C 30,4.896 29.104,4 28,4 L 26,4 26,2 C 26,0.896 25.104,0 24,0 L 4,0 C 2.896,0 2,0.896 2,2 l 0,24 c 0,1.104 0.896,2 2,2 z M 28,6 28,30 8,30 8,28 24,28 c 1.104,0 2,-0.896 2,-2 L 26,6 28,6 Z M 21,4 c 0.552,0 1,0.448 1,1 0,0.552 -0.448,1 -1,1 l -8.084,0 c -0.552,0 -1,-0.448 -1,-1 0,-0.552 0.448,-1 1,-1 L 21,4 Z M 6.916,10 21,10 c 0.552,0 1,0.448 1,1 0,0.552 -0.448,1 -1,1 L 6.916,12 c -0.552,0 -1,-0.448 -1,-1 0,-0.552 0.448,-1 1,-1 z m 0,6 L 21,16 c 0.552,0 1,0.448 1,1 0,0.552 -0.448,1 -1,1 L 6.916,18 c -0.552,0 -1,-0.448 -1,-1 0,-0.552 0.448,-1 1,-1 z m 0,6 L 21,22 c 0.552,0 1,0.448 1,1 0,0.552 -0.448,1 -1,1 L 6.916,24 c -0.552,0 -1,-0.448 -1,-1 0,-0.552 0.448,-1 1,-1 z"
         inkscape:connector-curvature="0"
         style="fill:#ffffff;fill-opacity:1" /></g></g></svg>