<?xml version="1.0" encoding="UTF-8" standalone="no"?>
<!-- Generator: IcoMoon.io -->

<svg
   xmlns:dc="http://purl.org/dc/elements/1.1/"
   xmlns:cc="http://creativecommons.org/ns#"
   xmlns:rdf="http://www.w3.org/1999/02/22-rdf-syntax-ns#"
   xmlns:svg="http://www.w3.org/2000/svg"
   xmlns="http://www.w3.org/2000/svg"
   xmlns:sodipodi="http://sodipodi.sourceforge.net/DTD/sodipodi-0.dtd"
   xmlns:inkscape="http://www.inkscape.org/namespaces/inkscape"
   version="1.1"
   id="Layer_1"
   x="0px"
   y="0px"
   width="32"
   height="32"
   viewBox="0 0 32 32"
   enable-background="new 0 0 16 16"
   xml:space="preserve"
   fill="#000000"
   inkscape:version="0.91 r13725"
   sodipodi:docname="icon_plus.svg"
   inkscape:export-filename="D:\Google Drive\Illustration\Perrinn F1\Iconos App\icon_speaker.png"
   inkscape:export-xdpi="720"
   inkscape:export-ydpi="720"><metadata
     id="metadata11"><rdf:RDF><cc:Work
         rdf:about=""><dc:format>image/svg+xml</dc:format><dc:type
           rdf:resource="http://purl.org/dc/dcmitype/StillImage" /><dc:title></dc:title></cc:Work></rdf:RDF></metadata><defs
     id="defs9" /><sodipodi:namedview
     pagecolor="#969696"
     bordercolor="#666666"
     borderopacity="1"
     objecttolerance="10"
     gridtolerance="10"
     guidetolerance="10"
     inkscape:pageopacity="0"
     inkscape:pageshadow="2"
     inkscape:window-width="1920"
     inkscape:window-height="1057"
     id="namedview7"
     showgrid="false"
     inkscape:zoom="22.627417"
     inkscape:cx="6.6943397"
     inkscape:cy="18.006857"
     inkscape:window-x="-8"
     inkscape:window-y="-8"
     inkscape:window-maximized="1"
     inkscape:current-layer="Layer_1"
     inkscape:showpageshadow="false"
     showguides="false"><inkscape:grid
       type="xygrid"
       id="grid4153" /></sodipodi:namedview><g
     style="fill:#ffffff;fill-opacity:1"
     id="g4346"
     transform="matrix(0.64939289,0,0,0.64939289,4.9603209,4.9603209)"><g
       id="g4336"
       style="fill:#ffffff;fill-opacity:1"><path
         id="path4338"
         d="M 17,2 C 8.716,2 2,8.716 2,17 2,25.284 8.716,32 17,32 25.284,32 32,25.284 32,17 32,8.716 25.284,2 17,2 Z m 0,28 C 9.832,30 4,24.168 4,17 4,9.832 9.832,4 17,4 c 7.168,0 13,5.832 13,13 0,7.168 -5.832,13 -13,13 z m 8,-14 -7,0 0,-7 C 18,8.448 17.552,8 17,8 16.448,8 16,8.448 16,9 l 0,7 -7,0 c -0.552,0 -1,0.448 -1,1 0,0.552 0.448,1 1,1 l 7,0 0,7 c 0,0.552 0.448,1 1,1 0.552,0 1,-0.448 1,-1 l 0,-7 7,0 c 0.552,0 1,-0.448 1,-1 0,-0.552 -0.448,-1 -1,-1 z"
         inkscape:connector-curvature="0"
         style="fill:#ffffff;fill-opacity:1" /></g></g></svg>