<?xml version="1.0" encoding="UTF-8" standalone="no"?>
<!-- Generator: IcoMoon.io -->

<svg
   xmlns:dc="http://purl.org/dc/elements/1.1/"
   xmlns:cc="http://creativecommons.org/ns#"
   xmlns:rdf="http://www.w3.org/1999/02/22-rdf-syntax-ns#"
   xmlns:svg="http://www.w3.org/2000/svg"
   xmlns="http://www.w3.org/2000/svg"
   xmlns:sodipodi="http://sodipodi.sourceforge.net/DTD/sodipodi-0.dtd"
   xmlns:inkscape="http://www.inkscape.org/namespaces/inkscape"
   version="1.1"
   id="Layer_1"
   x="0px"
   y="0px"
   width="32"
   height="32"
   viewBox="0 0 32 32"
   enable-background="new 0 0 16 16"
   xml:space="preserve"
   fill="#000000"
   inkscape:version="0.91 r13725"
   sodipodi:docname="icon_public_01.svg"
   inkscape:export-filename="D:\Google Drive\Illustration\Perrinn F1\Iconos App\icon_speaker.png"
   inkscape:export-xdpi="720"
   inkscape:export-ydpi="720"><metadata
     id="metadata11"><rdf:RDF><cc:Work
         rdf:about=""><dc:format>image/svg+xml</dc:format><dc:type
           rdf:resource="http://purl.org/dc/dcmitype/StillImage" /><dc:title></dc:title></cc:Work></rdf:RDF></metadata><defs
     id="defs9" /><sodipodi:namedview
     pagecolor="#969696"
     bordercolor="#666666"
     borderopacity="1"
     objecttolerance="10"
     gridtolerance="10"
     guidetolerance="10"
     inkscape:pageopacity="0"
     inkscape:pageshadow="2"
     inkscape:window-width="1920"
     inkscape:window-height="1057"
     id="namedview7"
     showgrid="false"
     inkscape:zoom="22.627417"
     inkscape:cx="6.6943397"
     inkscape:cy="18.006857"
     inkscape:window-x="-8"
     inkscape:window-y="-8"
     inkscape:window-maximized="1"
     inkscape:current-layer="Layer_1"
     inkscape:showpageshadow="false"
     showguides="false"><inkscape:grid
       type="xygrid"
       id="grid4153" /></sodipodi:namedview><rect
     style="fill:none;fill-opacity:1;stroke:#ffffff;stroke-width:0.5;stroke-linejoin:miter;stroke-miterlimit:4;stroke-dasharray:none;stroke-opacity:1"
     id="rect4151"
     width="31.5"
     height="31.5"
     x="0.25"
     y="0.25"
     rx="2" /><g
     style="fill:#ffffff;fill-opacity:1"
     id="g4315"
     transform="matrix(0.73778124,0,0,0.73778124,3.4577189,3.4577189)"><g
       id="g4305"
       style="fill:#ffffff;fill-opacity:1"><path
         id="path4307"
         d="M 17,2 C 8.716,2 2,8.716 2,17 2,25.284 8.716,32 17,32 25.284,32 32,25.284 32,17 32,8.716 25.284,2 17,2 Z m 10.938,8 -2.98,0 C 24.378,8.176 23.582,6.578 22.622,5.296 24.798,6.346 26.64,7.98 27.938,10 Z M 18,10 18,4.164 C 19.89,4.722 21.732,6.818 22.866,10 L 18,10 Z m 5.448,2 c 0.282,1.224 0.464,2.564 0.522,4 l -5.97,0 0,-4 5.448,0 z M 16,4.164 16,10 11.134,10 C 12.268,6.818 14.11,4.722 16,4.164 Z m 0,7.836 0,4 -5.97,0 c 0.058,-1.436 0.24,-2.776 0.522,-4 L 16,12 Z m -7.97,4 -3.98,0 c 0.108,-1.406 0.43,-2.754 0.952,-4 l 3.52,0 C 8.254,13.266 8.086,14.604 8.03,16 Z m 0,2 c 0.056,1.396 0.224,2.734 0.492,4 l -3.52,0 C 4.48,20.754 4.158,19.406 4.05,18 l 3.98,0 z m 2,0 5.97,0 0,4 -5.448,0 C 10.27,20.776 10.088,19.436 10.03,18 Z m 5.97,6 0,5.836 C 14.11,29.278 12.268,27.182 11.134,24 L 16,24 Z m 2,5.836 0,-5.836 4.866,0 C 21.732,27.182 19.89,29.278 18,29.836 Z M 18,22 l 0,-4 5.97,0 c -0.058,1.436 -0.24,2.776 -0.522,4 L 18,22 Z m 7.97,-4 3.98,0 c -0.108,1.406 -0.43,2.754 -0.952,4 l -3.52,0 c 0.268,-1.266 0.436,-2.604 0.492,-4 z m 0,-2 c -0.056,-1.396 -0.224,-2.734 -0.492,-4 l 3.52,0 c 0.522,1.246 0.844,2.594 0.952,4 l -3.98,0 z M 11.378,5.296 C 10.42,6.578 9.622,8.176 9.042,10 l -2.98,0 C 7.36,7.98 9.202,6.346 11.378,5.296 Z M 6.062,24 l 2.98,0 c 0.58,1.824 1.376,3.422 2.336,4.704 C 9.202,27.654 7.36,26.02 6.062,24 Z m 16.56,4.704 C 23.58,27.422 24.378,25.824 24.958,24 l 2.98,0 c -1.298,2.02 -3.14,3.654 -5.316,4.704 z"
         inkscape:connector-curvature="0"
         style="fill:#ffffff;fill-opacity:1" /></g></g></svg>