<?xml version="1.0" encoding="UTF-8" standalone="no"?>
<!-- Generator: IcoMoon.io -->

<svg
   xmlns:dc="http://purl.org/dc/elements/1.1/"
   xmlns:cc="http://creativecommons.org/ns#"
   xmlns:rdf="http://www.w3.org/1999/02/22-rdf-syntax-ns#"
   xmlns:svg="http://www.w3.org/2000/svg"
   xmlns="http://www.w3.org/2000/svg"
   xmlns:sodipodi="http://sodipodi.sourceforge.net/DTD/sodipodi-0.dtd"
   xmlns:inkscape="http://www.inkscape.org/namespaces/inkscape"
   version="1.1"
   id="Layer_1"
   x="0px"
   y="0px"
   width="32"
   height="32"
   viewBox="0 0 32 32"
   enable-background="new 0 0 16 16"
   xml:space="preserve"
   fill="#000000"
   inkscape:version="0.91 r13725"
   sodipodi:docname="icon_project_01.svg"
   inkscape:export-filename="D:\Google Drive\Illustration\Perrinn F1\Iconos App\icon_speaker.png"
   inkscape:export-xdpi="720"
   inkscape:export-ydpi="720"><metadata
     id="metadata11"><rdf:RDF><cc:Work
         rdf:about=""><dc:format>image/svg+xml</dc:format><dc:type
           rdf:resource="http://purl.org/dc/dcmitype/StillImage" /><dc:title></dc:title></cc:Work></rdf:RDF></metadata><defs
     id="defs9" /><sodipodi:namedview
     pagecolor="#969696"
     bordercolor="#666666"
     borderopacity="1"
     objecttolerance="10"
     gridtolerance="10"
     guidetolerance="10"
     inkscape:pageopacity="0"
     inkscape:pageshadow="2"
     inkscape:window-width="1920"
     inkscape:window-height="1057"
     id="namedview7"
     showgrid="false"
     inkscape:zoom="22.627417"
     inkscape:cx="6.6943397"
     inkscape:cy="18.006857"
     inkscape:window-x="-8"
     inkscape:window-y="-8"
     inkscape:window-maximized="1"
     inkscape:current-layer="Layer_1"
     inkscape:showpageshadow="false"
     showguides="false"><inkscape:grid
       type="xygrid"
       id="grid4153" /></sodipodi:namedview><rect
     style="fill:none;fill-opacity:1;stroke:#ffffff;stroke-width:0.5;stroke-linejoin:miter;stroke-miterlimit:4;stroke-dasharray:none;stroke-opacity:1"
     id="rect4151"
     width="31.5"
     height="31.5"
     x="0.25"
     y="0.25"
     rx="2" /><g
     style="fill:#ffffff;fill-opacity:1"
     id="g4285"
     transform="matrix(0.73484017,0,0,0.73484017,4.2425572,3.1404806)"><g
       id="g4275"
       style="fill:#ffffff;fill-opacity:1"><path
         id="path4277"
         d="M 1.656,17.756 16,5.324 30.344,17.756 C 30.534,17.92 30.768,18 31,18 c 0.28,0 0.558,-0.118 0.756,-0.344 0.362,-0.418 0.316,-1.048 -0.1,-1.412 l -15,-13 c -0.376,-0.326 -0.934,-0.326 -1.31,0 L 10,7.876 10,6 C 10,4.896 9.104,4 8,4 6.896,4 6,4.896 6,6 l 0,5.342 -5.656,4.902 c -0.416,0.362 -0.462,0.994 -0.1,1.412 0.364,0.416 0.994,0.462 1.412,0.1 z M 12,22 l 8,0 0,10 6,0 c 1.104,0 2,-0.896 2,-2 l 0,-9.802 c 0,-0.6 -0.268,-1.166 -0.732,-1.546 l -10,-8.198 C 16.9,10.152 16.45,10 16,10 c -0.45,0 -0.9,0.152 -1.268,0.454 l -10,8.198 C 4.268,19.03 4,19.598 4,20.198 L 4,30 c 0,1.104 0.896,2 2,2 l 6,0 0,-10 z"
         inkscape:connector-curvature="0"
         style="fill:#ffffff;fill-opacity:1" /></g></g></svg>