<?xml version="1.0" encoding="UTF-8" standalone="no"?>
<!-- Generator: IcoMoon.io -->

<svg
   xmlns:dc="http://purl.org/dc/elements/1.1/"
   xmlns:cc="http://creativecommons.org/ns#"
   xmlns:rdf="http://www.w3.org/1999/02/22-rdf-syntax-ns#"
   xmlns:svg="http://www.w3.org/2000/svg"
   xmlns="http://www.w3.org/2000/svg"
   xmlns:sodipodi="http://sodipodi.sourceforge.net/DTD/sodipodi-0.dtd"
   xmlns:inkscape="http://www.inkscape.org/namespaces/inkscape"
   version="1.1"
   id="Layer_1"
   x="0px"
   y="0px"
   width="32"
   height="32"
   viewBox="0 0 32 32"
   enable-background="new 0 0 16 16"
   xml:space="preserve"
   fill="#000000"
   inkscape:version="0.91 r13725"
   sodipodi:docname="icon_calendar.svg"
   inkscape:export-filename="D:\Google Drive\Illustration\Perrinn F1\Iconos App\icon_speaker.png"
   inkscape:export-xdpi="720"
   inkscape:export-ydpi="720"><metadata
     id="metadata11"><rdf:RDF><cc:Work
         rdf:about=""><dc:format>image/svg+xml</dc:format><dc:type
           rdf:resource="http://purl.org/dc/dcmitype/StillImage" /><dc:title></dc:title></cc:Work></rdf:RDF></metadata><defs
     id="defs9" /><sodipodi:namedview
     pagecolor="#969696"
     bordercolor="#666666"
     borderopacity="1"
     objecttolerance="10"
     gridtolerance="10"
     guidetolerance="10"
     inkscape:pageopacity="0"
     inkscape:pageshadow="2"
     inkscape:window-width="1920"
     inkscape:window-height="1057"
     id="namedview7"
     showgrid="false"
     inkscape:zoom="11.313709"
     inkscape:cx="-3.5373641"
     inkscape:cy="34.53632"
     inkscape:window-x="-8"
     inkscape:window-y="-8"
     inkscape:window-maximized="1"
     inkscape:current-layer="Layer_1"
     inkscape:showpageshadow="false"
     showguides="false"><inkscape:grid
       type="xygrid"
       id="grid4153" /></sodipodi:namedview><rect
     style="fill:none;fill-opacity:1;stroke:#ffffff;stroke-width:0.5;stroke-linejoin:miter;stroke-miterlimit:4;stroke-dasharray:none;stroke-opacity:1"
     id="rect4151"
     width="31.5"
     height="31.5"
     x="0.25"
     y="0.25"
     rx="2" /><g
     style="fill:#ffffff;fill-opacity:1"
     id="g4149"
     transform="matrix(0.70936713,0,0,0.70936713,4.6501259,4.6501259)"><g
       id="g4139"
       style="fill:#ffffff;fill-opacity:1"><path
         id="path4141"
         d="m 30,4.208 -2,0 0,2 0,1.104 c 0,1.654 -1.346,3 -3,3 -1.654,0 -3,-1.346 -3,-3 l 0,-1.104 0,-2 -12.01,0 0,2 0,1.104 c 0,1.654 -1.346,3 -3,3 -1.654,0 -3,-1.346 -3,-3 l 0,-1.104 0,-2 -1.99,0 C 0.90534067,4.2114728 -4.9487709e-4,4.9128454 0,5.624 L 0,6.208 0,12.438 0,30 c 0,1.104 0.896,2 2,2 l 28,0 c 1.104,0 2,-0.896 2,-2 l 0,-17.562 0,-6.23 0,-0.584 C 32.014066,4.7663915 30.722985,4.2141247 30,4.208 Z M 30,30 2,30 2,14 30,14 Z M 6.99,8.312 c 0.552,0 1,-0.448 1,-1 L 7.99,1 c 0,-0.552 -0.448,-1 -1,-1 -0.552,0 -1,0.448 -1,1 l 0,6.312 c 0,0.552 0.448,1 1,1 z m 18.01,0 c 0.552,0 1,-0.448 1,-1 L 26,1 C 26,0.448 25.552,0 25,0 24.448,0 24,0.448 24,1 l 0,6.312 c 0,0.552 0.448,1 1,1 z"
         inkscape:connector-curvature="0"
         style="fill:#ffffff;fill-opacity:1"
         sodipodi:nodetypes="cccsssccccsssccccccsssscccccccccssssssssssssss" /></g></g><text
     xml:space="preserve"
     style="font-style:normal;font-weight:normal;font-size:40px;line-height:125%;font-family:sans-serif;letter-spacing:0px;word-spacing:0px;fill:#000000;fill-opacity:1;stroke:none;stroke-width:1px;stroke-linecap:butt;stroke-linejoin:miter;stroke-opacity:1"
     x="9.4891415"
     y="23.871859"
     id="text4153"
     sodipodi:linespacing="125%"><tspan
       sodipodi:role="line"
       id="tspan4155"
       x="9.4891415"
       y="23.871859"
       style="font-size:10px;fill:#ffffff;fill-opacity:1">15</tspan></text>
</svg>