<?xml version="1.0" encoding="UTF-8" standalone="no"?>
<!-- Generator: IcoMoon.io -->

<svg
   xmlns:dc="http://purl.org/dc/elements/1.1/"
   xmlns:cc="http://creativecommons.org/ns#"
   xmlns:rdf="http://www.w3.org/1999/02/22-rdf-syntax-ns#"
   xmlns:svg="http://www.w3.org/2000/svg"
   xmlns="http://www.w3.org/2000/svg"
   xmlns:sodipodi="http://sodipodi.sourceforge.net/DTD/sodipodi-0.dtd"
   xmlns:inkscape="http://www.inkscape.org/namespaces/inkscape"
   version="1.1"
   id="Layer_1"
   x="0px"
   y="0px"
   width="32"
   height="32"
   viewBox="0 0 32 32"
   enable-background="new 0 0 16 16"
   xml:space="preserve"
   fill="#000000"
   inkscape:version="0.91 r13725"
   sodipodi:docname="icon_maps_01.svg"
   inkscape:export-filename="D:\Google Drive\Illustration\Perrinn F1\Iconos App\icon_speaker.png"
   inkscape:export-xdpi="720"
   inkscape:export-ydpi="720"><metadata
     id="metadata11"><rdf:RDF><cc:Work
         rdf:about=""><dc:format>image/svg+xml</dc:format><dc:type
           rdf:resource="http://purl.org/dc/dcmitype/StillImage" /><dc:title></dc:title></cc:Work></rdf:RDF></metadata><defs
     id="defs9" /><sodipodi:namedview
     pagecolor="#969696"
     bordercolor="#666666"
     borderopacity="1"
     objecttolerance="10"
     gridtolerance="10"
     guidetolerance="10"
     inkscape:pageopacity="0"
     inkscape:pageshadow="2"
     inkscape:window-width="1920"
     inkscape:window-height="1057"
     id="namedview7"
     showgrid="false"
     inkscape:zoom="22.627417"
     inkscape:cx="6.6943397"
     inkscape:cy="18.006857"
     inkscape:window-x="-8"
     inkscape:window-y="-8"
     inkscape:window-maximized="1"
     inkscape:current-layer="Layer_1"
     inkscape:showpageshadow="false"
     showguides="false"><inkscape:grid
       type="xygrid"
       id="grid4153" /></sodipodi:namedview><rect
     style="fill:none;fill-opacity:1;stroke:#ffffff;stroke-width:0.5;stroke-linejoin:miter;stroke-miterlimit:4;stroke-dasharray:none;stroke-opacity:1"
     id="rect4151"
     width="31.5"
     height="31.5"
     x="0.25"
     y="0.25"
     rx="2" /><g
     style="fill:#ffffff;fill-opacity:1;stroke:none;stroke-opacity:1"
     id="g4253"
     transform="matrix(0.71570639,0,0,0.71570639,5.1126744,4.5665904)"><g
       id="g4243"
       style="fill:#ffffff;fill-opacity:1;stroke:none;stroke-opacity:1"><path
         id="path4245"
         d="m 15.212,8 c 1.77,0 3.212,1.44 3.212,3.212 0,1.772 -1.44,3.212 -3.212,3.212 C 13.44,14.424 12,12.982 12,11.212 12,9.442 13.44,8 15.212,8 Z m -0.728,23.458 c 0.168,0.186 0.33,0.306 0.486,0.39 0.002,0.002 0.006,0.002 0.008,0.004 0.108,0.056 0.214,0.098 0.314,0.098 0.1,0 0.206,-0.042 0.314,-0.098 0.002,-0.002 0.006,-0.002 0.008,-0.004 0.156,-0.084 0.318,-0.204 0.486,-0.39 0,0 9.296,-10.11 10.23,-18.87 0.056,-0.452 0.094,-0.91 0.094,-1.376 C 26.424,5.02 21.404,0 15.212,0 9.02,0 4,5.02 4,11.212 c 0,0.474 0.038,0.936 0.096,1.394 0.958,8.756 10.388,18.852 10.388,18.852 z"
         inkscape:connector-curvature="0"
         style="fill:#ffffff;fill-opacity:1;stroke:none;stroke-opacity:1"
         sodipodi:nodetypes="ssssscccsccccssscc" /></g></g></svg>