<?xml version="1.0" encoding="utf-8"?>
<!-- Generator: Adobe Illustrator 21.0.0, SVG Export Plug-In . SVG Version: 6.00 Build 0)  -->
<svg version="1.2" baseProfile="tiny"
	 id="Layer_1" xmlns:cc="http://creativecommons.org/ns#" xmlns:dc="http://purl.org/dc/elements/1.1/" xmlns:rdf="http://www.w3.org/1999/02/22-rdf-syntax-ns#" xmlns:svg="http://www.w3.org/2000/svg"
	 xmlns="http://www.w3.org/2000/svg" xmlns:xlink="http://www.w3.org/1999/xlink" x="0px" y="0px" viewBox="0 0 32 32"
	 xml:space="preserve">
<path fill="#3C3C3C" d="M16,28c6.7,0,12-5.4,12-12S22.7,4,16,4S4,9.4,4,16S9.3,28,16,28z M16,4.7c6.3,0,11.4,5.1,11.4,11.4
	c0,3.1-1.1,5.8-3.3,8s-4.9,3.3-8,3.3s-5.8-1.1-8-3.3S4.8,19.2,4.8,16C4.7,9.7,9.8,4.7,16,4.7z"/>
<path fill="#3C3C3C" d="M23.2,8.9c-2-2-4.4-3-7.2-3C10.4,5.9,5.9,10.4,5.9,16c0,5.7,4.5,10.1,10.4,10.1c2.5,0,4.9-1,6.9-2.9
	c2-2,3-4.4,3-7.2C26.1,13.2,25.1,10.8,23.2,8.9z M20.9,19.9c-0.2,0.9-0.8,1.6-1.6,2c-0.6,0.3-1.3,0.5-2,0.6c-0.1,0-0.2,0-0.3,0
	c-0.1,0-0.1,0.1-0.1,0.1c0,0.1,0,0.1,0,0.2c0,0.4,0,0.8,0,1.2c0,0.2,0,0.3-0.2,0.3c-0.4,0-0.9,0-1.3,0c-0.2,0-0.2,0-0.2-0.2
	c0-0.4,0-0.8,0-1.2c0-0.1,0-0.1,0-0.2c0-0.2,0-0.2-0.2-0.2c-0.3,0-0.6,0-0.8-0.1c-0.7-0.1-1.3-0.3-1.9-0.6c-0.7-0.4-1.3-1-1.6-1.8
	c-0.1-0.2-0.2-0.4-0.2-0.6c0-0.1,0-0.1-0.1-0.2c0.2,0,0.3-0.1,0.4-0.1c0.6-0.1,1.2-0.2,1.8-0.3c0.2,0,0.2,0,0.3,0.2
	c0.3,0.8,0.9,1.3,1.7,1.5c0.9,0.2,1.9,0.2,2.8,0c0.2-0.1,0.5-0.2,0.7-0.3c0.7-0.5,0.9-1.7,0.1-2.3c-0.4-0.3-0.7-0.4-1.2-0.5
	c-0.6-0.2-1.3-0.3-1.9-0.5c-0.5-0.1-0.9-0.2-1.4-0.4c-0.5-0.1-0.9-0.3-1.3-0.6c-0.8-0.5-1.2-1.3-1.4-2.2c0-0.4,0-0.7,0-1.1
	c0.1-1,0.7-1.7,1.6-2.2c0.6-0.3,1.2-0.5,1.8-0.6c0.2,0,0.4-0.1,0.6-0.1c0.3,0,0.2-0.1,0.2-0.3c0-0.5,0-1.1,0-1.6c0-0.1,0-0.2,0-0.3
	c0-0.1,0-0.1,0.1-0.1c0.5,0,1,0,1.5,0c0.1,0,0.1,0.1,0.1,0.2s0,0.3,0,0.4c0,0.5,0,1,0,1.5c0,0.1,0,0.1,0,0.2c0,0.1,0,0.2,0.2,0.2
	c0.3,0.1,0.6,0.1,0.9,0.2c0.5,0.1,1,0.3,1.4,0.6c0.6,0.4,0.9,0.9,1.2,1.6c0.1,0.2,0.1,0.4,0.2,0.7c-0.8,0.1-1.6,0.2-2.4,0.3
	c0-0.1-0.1-0.2-0.1-0.2c-0.2-0.6-0.6-0.9-1.1-1.2c-0.3-0.1-0.6-0.2-1-0.2c-0.5,0-1,0-1.5,0.1c-0.3,0.1-0.6,0.2-0.9,0.4
	c-0.6,0.5-0.6,1.6,0,2c0.3,0.2,0.6,0.4,0.9,0.5c0.5,0.1,0.9,0.2,1.4,0.4c0.8,0.2,1.6,0.4,2.4,0.6c0.4,0.1,0.8,0.3,1.1,0.5
	c0.7,0.4,1.1,1,1.3,1.8C21.1,18.6,21.1,19.3,20.9,19.9z"/>
</svg>
