<?xml version="1.0" encoding="UTF-8" standalone="no"?>
<!-- Generator: IcoMoon.io -->

<svg
   xmlns:dc="http://purl.org/dc/elements/1.1/"
   xmlns:cc="http://creativecommons.org/ns#"
   xmlns:rdf="http://www.w3.org/1999/02/22-rdf-syntax-ns#"
   xmlns:svg="http://www.w3.org/2000/svg"
   xmlns="http://www.w3.org/2000/svg"
   xmlns:xlink="http://www.w3.org/1999/xlink"
   xmlns:sodipodi="http://sodipodi.sourceforge.net/DTD/sodipodi-0.dtd"
   xmlns:inkscape="http://www.inkscape.org/namespaces/inkscape"
   version="1.1"
   id="Layer_1"
   x="0px"
   y="0px"
   width="32"
   height="32"
   viewBox="0 0 32 32"
   enable-background="new 0 0 16 16"
   xml:space="preserve"
   fill="#000000"
   inkscape:version="0.91 r13725"
   sodipodi:docname="icon_winner.svg"
   inkscape:export-filename="D:\Google Drive\Illustration\Perrinn F1\Iconos App\icon_speaker.png"
   inkscape:export-xdpi="720"
   inkscape:export-ydpi="720"><metadata
     id="metadata11"><rdf:RDF><cc:Work
         rdf:about=""><dc:format>image/svg+xml</dc:format><dc:type
           rdf:resource="http://purl.org/dc/dcmitype/StillImage" /><dc:title /></cc:Work></rdf:RDF></metadata><defs
     id="defs9"><linearGradient
       inkscape:collect="always"
       id="linearGradient4167"><stop
         style="stop-color:#b4cbec;stop-opacity:1"
         offset="0"
         id="stop4169" /><stop
         style="stop-color:#5480c0;stop-opacity:1"
         offset="1"
         id="stop4171" /></linearGradient><linearGradient
       inkscape:collect="always"
       id="linearGradient4140"><stop
         style="stop-color:#001f7b;stop-opacity:1"
         offset="0"
         id="stop4142" /><stop
         style="stop-color:#2d72ba;stop-opacity:1"
         offset="1"
         id="stop4144" /></linearGradient><linearGradient
       inkscape:collect="always"
       xlink:href="#linearGradient4140"
       id="linearGradient4146"
       x1="7.8742642"
       y1="25.587889"
       x2="24.269552"
       y2="6.9394455"
       gradientUnits="userSpaceOnUse" /><radialGradient
       inkscape:collect="always"
       xlink:href="#linearGradient4167"
       id="radialGradient4175"
       cx="31.057341"
       cy="0.89472038"
       fx="31.057341"
       fy="0.89472038"
       r="15.708008"
       gradientUnits="userSpaceOnUse"
       gradientTransform="matrix(0,-1.9043927,1.9054193,0,29.352523,60.040093)" /></defs><sodipodi:namedview
     pagecolor="#969696"
     bordercolor="#666666"
     borderopacity="1"
     objecttolerance="10"
     gridtolerance="10"
     guidetolerance="10"
     inkscape:pageopacity="0"
     inkscape:pageshadow="2"
     inkscape:window-width="1920"
     inkscape:window-height="1057"
     id="namedview7"
     showgrid="false"
     inkscape:zoom="20.85965"
     inkscape:cx="20.705718"
     inkscape:cy="17.248675"
     inkscape:window-x="-8"
     inkscape:window-y="-8"
     inkscape:window-maximized="1"
     inkscape:current-layer="layer1"
     inkscape:showpageshadow="false"
     showguides="true"><inkscape:grid
       type="xygrid"
       id="grid4153" /></sodipodi:namedview><g
     inkscape:groupmode="layer"
     id="layer1"
     inkscape:label="Layer 1"
     style="display:inline"><path
       style="fill:#003789;fill-opacity:1;stroke:none;stroke-width:0.5;stroke-linejoin:miter;stroke-miterlimit:4;stroke-dasharray:none;stroke-opacity:1"
       d="M 0.58398438 0.58398438 C 0.22248438 0.94548437 0 1.446 0 2 L 0 30 C 0 31.108 0.892 32 2 32 L 30 32 C 30.554 32 31.054516 31.777516 31.416016 31.416016 L 0.58398438 0.58398438 z "
       id="path4157" /><path
       style="fill:url(#radialGradient4175);fill-opacity:1;stroke:none;stroke-width:0.5;stroke-linejoin:miter;stroke-miterlimit:4;stroke-dasharray:none;stroke-opacity:1"
       d="M 0.58398438 0.58398438 L 31.416016 31.416016 C 31.777516 31.054516 32 30.554 32 30 L 32 2 C 32 0.892 31.108 0 30 0 L 2 0 C 1.446 0 0.94548437 0.22248438 0.58398438 0.58398438 z "
       id="rect4151" /></g><g
     inkscape:groupmode="layer"
     id="layer3"
     inkscape:label="Layer 2"
     style="display:inline"><circle
       style="fill:url(#linearGradient4146);fill-opacity:1;stroke:none;stroke-width:0.1;stroke-linejoin:miter;stroke-miterlimit:1;stroke-dasharray:none;stroke-opacity:1"
       id="path4138"
       cx="16"
       cy="16"
       r="12.823801" /><g
       style="display:inline;fill:none;fill-opacity:1;stroke:none;stroke-width:0.1;stroke-miterlimit:1;stroke-dasharray:none;stroke-opacity:1"
       inkscape:label="Capa 2"
       id="layer2"
       transform="translate(0.02351999,0.06927696)"><path
         style="display:inline;fill:#ffffff;fill-opacity:1;stroke:none;stroke-width:0.1;stroke-miterlimit:1;stroke-dasharray:none;stroke-opacity:1"
         d="M 16.027344,2.9179688 C 15.333532,2.9178187 14.640803,2.9568064 14.138672,3.0351562 12.341491,3.3156565 10.699129,3.9068938 9.2128906,4.8085938 8.5629256,5.2029938 7.7775155,5.7794656 7.3203125,6.1972656 7.1611037,6.3427656 6.9559084,6.527375 6.8652344,6.609375 6.545767,6.897175 5.9219742,7.6160936 5.4980469,8.1835938 4.197196,9.9248936 3.3818375,11.894947 3.0371094,14.123047 c -0.1467886,0.9487 -0.1467886,2.762237 0,3.710937 0.2042287,1.32 0.6017905,2.635038 1.1425781,3.773438 2.0179912,4.2481 6.1640715,7.102972 10.8183595,7.451172 l 0,0.002 c 0.276185,0.025 0.889819,0.02567 1.363281,0.01367 5.848504,-0.1503 10.914186,-4.200288 12.337891,-9.867188 0.297398,-1.1838 0.374182,-1.83474 0.375,-3.18164 6.1e-4,-1.0037 -0.01733,-1.306572 -0.107422,-1.888672 -0.444309,-2.8708 -1.713628,-5.3898502 -3.730469,-7.4062502 -2.005588,-2.0052 -4.462399,-3.2467125 -7.320312,-3.6953126 -0.500747,-0.07855 -1.19486,-0.1170374 -1.888672,-0.1171874 z m -0.369141,1.5566406 c 1.734288,-0.049988 3.468904,0.2931718 5.091797,1.0214844 0.577204,0.2589999 0.652063,0.306625 0.626953,0.390625 -0.06052,0.203 -0.835715,1.7648625 -1.074219,2.1640624 -0.871534,1.4584002 -2.037312,2.8081878 -2.476562,2.8671878 -0.366082,0.0491 -0.765043,-0.200247 -0.695313,-0.435547 0.01631,-0.0551 0.174127,-0.251447 0.351563,-0.435547 0.406029,-0.4213 0.594872,-0.7601781 0.669922,-1.2050781 C 18.26267,8.1876969 18.034862,7.4373 17.574219,6.9375 17.118573,6.4432 16.346505,6.1897469 15.664062,6.3105469 c -0.967195,0.171 -1.673222,0.8731937 -1.818359,1.8085937 -0.111613,0.7194 0.109358,1.3336311 0.703125,1.9570314 0.194682,0.2043 0.353516,0.383484 0.353516,0.396484 0,0.1096 -0.120924,0.284281 -0.25,0.363282 l 0,0.002 C 14.479321,10.942891 14.168161,10.961 14.017578,10.875 13.841201,10.7743 13.290564,10.242641 12.974609,9.8691406 12.384826,9.1718406 11.8299,8.3339312 11.294922,7.3320312 11.051485,6.8761313 10.599609,5.8914064 10.599609,5.8164062 c 0,-0.0731 1.309491,-0.6249718 1.960938,-0.8261718 1.017198,-0.3140625 2.057084,-0.4856321 3.097656,-0.515625 z M 8.6269531,7.1875 c 0.01962,0.00552 0.036009,0.020969 0.056641,0.042969 0.839456,0.8962998 4.2674509,4.741247 4.5117179,5.060547 0.620201,0.8105 1.052065,1.90534 1.183594,2.99414 0.34092,2.8221 -0.873768,6.488478 -3.339844,10.080078 -0.275992,0.4019 -0.51463,0.74 -0.53125,0.75 -0.06276,0.0388 -1.1525926,-0.675653 -1.7187492,-1.126953 -2.1911724,-1.7465 -3.710144,-4.335056 -4.167969,-7.097656 -0.131392,-0.7928 -0.1755144,-2.081359 -0.099609,-2.943359 C 4.7646942,12.185366 6.1388582,9.3879687 8.1582031,7.5429688 8.4787669,7.2497938 8.5680936,7.1709484 8.6269531,7.1875 Z M 23.396484,7.18945 c 0.06576,0.011114 0.191015,0.1168157 0.498047,0.4003907 2.022466,1.8680999 3.349459,4.5844753 3.591797,7.3593753 0.08003,0.9164 0.03013,2.151234 -0.11914,2.990234 -0.58036,3.262 -2.489295,6.113978 -5.240235,7.830078 -0.327361,0.2042 -0.606514,0.370041 -0.621094,0.369141 -0.05308,-0.0033 -0.995324,-1.424313 -1.455078,-2.195313 -2.767816,-4.6412 -3.242846,-8.941637 -1.28125,-11.585937 0.240182,-0.3238 3.652231,-4.1644908 4.576172,-5.1503909 0.01313,-0.014 0.02886,-0.021283 0.05078,-0.017578 z m -7.367187,13.519534 c 0.15285,-0.0028 0.3155,0.03065 0.451172,0.230469 0.115951,0.170773 2.576809,6.122922 2.537109,6.169922 -0.06503,0.0765 -1.363159,0.318188 -1.96875,0.367187 -1.2096,0.097 -2.23707,0.03935 -3.34375,-0.189453 l -0.75,-0.15625 0.976563,-2.419921 c 0.537611,-1.3311 1.096656,-2.716626 1.242187,-3.078126 0.145531,-0.361499 0.271864,-0.59545 0.371094,-0.732421 0.130245,-0.179777 0.303616,-0.188107 0.484375,-0.191407 z"
         transform="translate(-0.02351999,-0.06927696)"
         id="path4163"
         inkscape:connector-curvature="0" /></g></g></svg>