<?xml version="1.0" encoding="UTF-8" standalone="no"?>
<!-- Generator: IcoMoon.io -->

<svg
   xmlns:dc="http://purl.org/dc/elements/1.1/"
   xmlns:cc="http://creativecommons.org/ns#"
   xmlns:rdf="http://www.w3.org/1999/02/22-rdf-syntax-ns#"
   xmlns:svg="http://www.w3.org/2000/svg"
   xmlns="http://www.w3.org/2000/svg"
   xmlns:sodipodi="http://sodipodi.sourceforge.net/DTD/sodipodi-0.dtd"
   xmlns:inkscape="http://www.inkscape.org/namespaces/inkscape"
   version="1.1"
   id="Layer_1"
   x="0px"
   y="0px"
   width="32"
   height="32"
   viewBox="0 0 32 32"
   enable-background="new 0 0 16 16"
   xml:space="preserve"
   fill="#000000"
   inkscape:version="0.91 r13725"
   sodipodi:docname="icon_chat_01.svg"
   inkscape:export-filename="D:\Google Drive\Illustration\Perrinn F1\Iconos App\icon_speaker.png"
   inkscape:export-xdpi="720"
   inkscape:export-ydpi="720"><metadata
     id="metadata11"><rdf:RDF><cc:Work
         rdf:about=""><dc:format>image/svg+xml</dc:format><dc:type
           rdf:resource="http://purl.org/dc/dcmitype/StillImage" /><dc:title></dc:title></cc:Work></rdf:RDF></metadata><defs
     id="defs9" /><sodipodi:namedview
     pagecolor="#969696"
     bordercolor="#666666"
     borderopacity="1"
     objecttolerance="10"
     gridtolerance="10"
     guidetolerance="10"
     inkscape:pageopacity="0"
     inkscape:pageshadow="2"
     inkscape:window-width="1920"
     inkscape:window-height="1057"
     id="namedview7"
     showgrid="false"
     inkscape:zoom="16"
     inkscape:cx="5.7316216"
     inkscape:cy="21.672527"
     inkscape:window-x="-8"
     inkscape:window-y="-8"
     inkscape:window-maximized="1"
     inkscape:current-layer="Layer_1"
     inkscape:showpageshadow="false"
     showguides="false"><inkscape:grid
       type="xygrid"
       id="grid4153" /></sodipodi:namedview><rect
     style="fill:none;fill-opacity:1;stroke:#ffffff;stroke-width:0.5;stroke-linejoin:miter;stroke-miterlimit:4;stroke-dasharray:none;stroke-opacity:1"
     id="rect4151"
     width="31.5"
     height="31.5"
     x="0.25"
     y="0.25"
     rx="2" /><g
     style="fill:#ffffff;fill-opacity:1"
     id="g4169"
     transform="matrix(0.75416991,0,0,0.75416991,3.9332814,3.8571103)"><g
       id="g4159"
       style="fill:#ffffff;fill-opacity:1"><path
         id="path4161"
         d="m 27.91,11.79 c 0.176,0.792 0.278,1.606 0.278,2.442 0,6.456 -5.48,11.838 -12.696,12.994 1.526,0.616 3.236,0.976 5.058,0.976 1.718,0 3.34,-0.316 4.804,-0.866 1.854,0.632 3.878,0.796 5.552,0.796 -0.87,-1.044 -1.474,-2.068 -1.906,-2.968 1.856,-1.656 3,-3.85 3,-6.266 0,-2.856 -1.594,-5.402 -4.09,-7.108 z m -2.722,2.442 C 25.188,8.582 19.55,4 12.594,4 5.638,4 0,8.582 0,14.232 c 0,2.948 1.542,5.596 3.998,7.464 -0.462,1.192 -1.244,2.75 -2.57,4.344 2.516,0 5.756,-0.33 8.25,-1.862 0.938,0.182 1.912,0.288 2.916,0.288 6.956,-0.002 12.594,-4.582 12.594,-10.234 z"
         inkscape:connector-curvature="0"
         style="fill:#ffffff;fill-opacity:1" /></g></g></svg>