<?xml version="1.0" encoding="UTF-8" standalone="no"?>
<!-- Generator: IcoMoon.io -->

<svg
   xmlns:dc="http://purl.org/dc/elements/1.1/"
   xmlns:cc="http://creativecommons.org/ns#"
   xmlns:rdf="http://www.w3.org/1999/02/22-rdf-syntax-ns#"
   xmlns:svg="http://www.w3.org/2000/svg"
   xmlns="http://www.w3.org/2000/svg"
   xmlns:sodipodi="http://sodipodi.sourceforge.net/DTD/sodipodi-0.dtd"
   xmlns:inkscape="http://www.inkscape.org/namespaces/inkscape"
   version="1.1"
   id="Layer_1"
   x="0px"
   y="0px"
   width="32"
   height="32"
   viewBox="0 0 32 32"
   enable-background="new 0 0 16 16"
   xml:space="preserve"
   fill="#000000"
   inkscape:version="0.91 r13725"
   sodipodi:docname="icon_mic.svg"
   inkscape:export-filename="D:\Google Drive\Illustration\Perrinn F1\Iconos App\icon_speaker.png"
   inkscape:export-xdpi="720"
   inkscape:export-ydpi="720"><metadata
     id="metadata11"><rdf:RDF><cc:Work
         rdf:about=""><dc:format>image/svg+xml</dc:format><dc:type
           rdf:resource="http://purl.org/dc/dcmitype/StillImage" /><dc:title></dc:title></cc:Work></rdf:RDF></metadata><defs
     id="defs9" /><sodipodi:namedview
     pagecolor="#969696"
     bordercolor="#666666"
     borderopacity="1"
     objecttolerance="10"
     gridtolerance="10"
     guidetolerance="10"
     inkscape:pageopacity="0"
     inkscape:pageshadow="2"
     inkscape:window-width="1920"
     inkscape:window-height="1057"
     id="namedview7"
     showgrid="false"
     inkscape:zoom="22.627417"
     inkscape:cx="6.6943397"
     inkscape:cy="18.006857"
     inkscape:window-x="-8"
     inkscape:window-y="-8"
     inkscape:window-maximized="1"
     inkscape:current-layer="Layer_1"
     inkscape:showpageshadow="false"
     showguides="false"><inkscape:grid
       type="xygrid"
       id="grid4153" /></sodipodi:namedview><rect
     style="fill:none;fill-opacity:1;stroke:#ffffff;stroke-width:0.5;stroke-linejoin:miter;stroke-miterlimit:4;stroke-dasharray:none;stroke-opacity:1"
     id="rect4151"
     width="31.5"
     height="31.5"
     x="0.25"
     y="0.25"
     rx="2" /><g
     style="fill:#ffffff;fill-opacity:1"
     id="g4269"
     transform="matrix(0.77902913,0,0,0.77902913,3.5355339,3.5355339)"><g
       id="g4259"
       style="fill:#ffffff;fill-opacity:1"><path
         id="path4261"
         d="M 14,25.808 14,30 11,30 c -0.552,0 -1,0.448 -1,1 0,0.552 0.448,1 1,1 l 4.98,0 0.04,0 4.98,0 c 0.552,0 1,-0.448 1,-1 0,-0.552 -0.448,-1 -1,-1 l -3,0 0,-4.204 C 22.166,24.974 26,21.602 26,16 l 0,-3 c 0,-0.552 -0.448,-1 -1,-1 -0.552,0 -1,0.448 -1,1 l 0,3 c 0,5.252 -4.026,8 -8,8 -3.854,0 -8,-2.504 -8,-8 L 8,13 C 8,12.448 7.552,12 7,12 6.448,12 6,12.448 6,13 l 0,3 c 0,5.68 3.766,9.012 8,9.808 z M 16,20 c 2.21,0 4,-1.79 4,-4 L 20,4 C 20,1.79 18.21,0 16,0 13.79,0 12,1.79 12,4 l 0,12 c 0,2.21 1.79,4 4,4 z"
         inkscape:connector-curvature="0"
         style="fill:#ffffff;fill-opacity:1" /></g></g></svg>